<svg preserveAspectRatio="none" width="100%" height="100%" overflow="visible" style="display: block;" viewBox="0 0 24 24" fill="none" xmlns="http://www.w3.org/2000/svg">
<g id="loyalty-card">
<g id="elements">
<path id="Icon" d="M20 2.75C21.5188 2.75 22.75 3.98122 22.75 5.5V18.5C22.75 20.0188 21.5188 21.25 20 21.25H4C2.48122 21.25 1.25 20.0188 1.25 18.5V5.5C1.25 3.98122 2.48122 2.75 4 2.75H20ZM4 4.25C3.30964 4.25 2.75 4.80964 2.75 5.5V18.5C2.75 19.1904 3.30964 19.75 4 19.75H20C20.6904 19.75 21.25 19.1904 21.25 18.5V5.5C21.25 4.80964 20.6904 4.25 20 4.25H4Z" fill="var(--fill-0, #5669FF)"/>
</g>
<path id="Vector 9645 (Stroke)" d="M10.6986 7.39359C11.3992 6.57815 12.6632 6.58138 13.3597 7.40043L18.2552 13.1582C18.3026 13.214 18.3724 13.246 18.4456 13.2461H21.9906C22.4045 13.2463 22.7404 13.5822 22.7406 13.9961C22.7406 14.4102 22.4046 14.7459 21.9906 14.7461H18.4456C17.9325 14.746 17.4451 14.5209 17.1126 14.1299L12.2171 8.37211C12.1176 8.25509 11.9364 8.25463 11.8363 8.37113L6.88411 14.1368C6.55166 14.5237 6.0671 14.7461 5.55697 14.7461H2.01986C1.60564 14.7461 1.26986 14.4103 1.26986 13.9961C1.27004 13.5821 1.60576 13.2461 2.01986 13.2461H5.55697C5.62984 13.2461 5.69893 13.2145 5.74642 13.1592L10.6986 7.39359Z" fill="var(--fill-0, #5669FF)"/>
<path id="Union" opacity="0.2" fill-rule="evenodd" clip-rule="evenodd" d="M4 4.25C3.30964 4.25 2.75 4.80964 2.75 5.5V13.2461H5.55762C5.63031 13.246 5.69968 13.2143 5.74707 13.1592L10.6992 7.39355C11.3999 6.57844 12.664 6.58146 13.3604 7.40039L18.2559 13.1582C18.3033 13.2139 18.3731 13.246 18.4463 13.2461H21.25V5.5C21.25 4.80964 20.6904 4.25 20 4.25H4Z" fill="var(--fill-0, #5669FF)"/>
</g>
</svg>
