<svg preserveAspectRatio="none" width="100%" height="100%" overflow="visible" style="display: block;" viewBox="0 0 21.5 18.5001" fill="none" xmlns="http://www.w3.org/2000/svg">
<g id="elements">
<g id="Vector" opacity="0.2">
</g>
<path id="Icon" d="M13.7637 0.164293C15.7284 -0.13042 18.3851 -0.13599 21.0576 1.06664C21.3267 1.18775 21.5 1.4551 21.5 1.75023V16.7502C21.5 17.0047 21.3709 17.2419 21.1572 17.3801C20.9435 17.5183 20.6744 17.5382 20.4424 17.4338C18.1149 16.3865 15.7716 16.3799 13.9863 16.6477C13.0963 16.7812 12.3549 16.9818 11.8389 17.1477C11.5812 17.2305 11.3807 17.3046 11.2471 17.3567C11.1806 17.3826 11.1306 17.4028 11.0986 17.4162L11.0576 17.4338C8.38527 18.6362 5.72832 18.6299 3.76367 18.3352C2.77878 18.1874 1.95755 17.9662 1.37988 17.7805C1.09072 17.6876 0.861489 17.6034 0.702148 17.5412C0.622536 17.5102 0.560294 17.4844 0.516602 17.4661C0.494805 17.4569 0.477244 17.45 0.464844 17.4446L0.450195 17.4377L0.445312 17.4358L0.443359 17.4348C0.443092 17.4346 0.445324 17.4273 0.75 16.7502L0.442383 17.4338C0.173256 17.3127 1.49143e-05 17.0453 0 16.7502V1.75023C0 1.49573 0.12906 1.25853 0.342773 1.12035C0.556345 0.982263 0.825645 0.961458 1.05762 1.06566L1.09863 1.08324C1.13062 1.0967 1.18035 1.11777 1.24707 1.14379C1.38069 1.1959 1.5812 1.26995 1.83887 1.35277C2.35493 1.51864 3.0963 1.71829 3.98633 1.85179C5.77157 2.11958 8.1149 2.114 10.4424 1.06664L10.4434 1.06566L10.4453 1.06468L10.4502 1.06273L10.4648 1.05589C10.4772 1.05049 10.4948 1.04359 10.5166 1.03441C10.5603 1.01602 10.6225 0.990271 10.7021 0.959215C10.8615 0.897074 11.0907 0.812906 11.3799 0.719957C11.9576 0.534272 12.7787 0.312036 13.7637 0.164293ZM20 2.2473C17.8203 1.38692 15.6585 1.39689 13.9863 1.64769C13.0963 1.7812 12.3549 1.98182 11.8389 2.14769C11.5812 2.23051 11.3807 2.30456 11.2471 2.35668C11.1806 2.3826 11.1306 2.40278 11.0986 2.41625L11.0645 2.43089L11.0576 2.4348C8.38526 3.63723 5.72832 3.62989 3.76367 3.33519C2.84518 3.19741 2.069 2.9958 1.5 2.81859V16.2375C1.59822 16.2726 1.71156 16.3118 1.83887 16.3528C2.35493 16.5186 3.0963 16.7183 3.98633 16.8518C5.77157 17.1196 8.1149 17.114 10.4424 16.0666L10.75 16.7502C10.4477 16.0786 10.4432 16.066 10.4434 16.0657L10.4453 16.0647L10.4502 16.0627L10.4648 16.0559C10.4772 16.0505 10.4948 16.0436 10.5166 16.0344C10.5603 16.016 10.6225 15.9903 10.7021 15.9592C10.8615 15.8971 11.0907 15.8129 11.3799 15.72C11.9576 15.5343 12.7787 15.312 13.7637 15.1643C15.4686 14.9085 17.6948 14.8705 20 15.6506V2.2473ZM10.75 6.00023C12.5449 6.00023 14 7.45531 14 9.25023C14 11.0452 12.5449 12.5002 10.75 12.5002C8.95507 12.5002 7.5 11.0452 7.5 9.25023C7.5 7.45531 8.95507 6.00023 10.75 6.00023ZM10.75 7.50023C9.7835 7.50023 9 8.28373 9 9.25023C9 10.2167 9.7835 11.0002 10.75 11.0002C11.7165 11.0002 12.5 10.2167 12.5 9.25023C12.5 8.28373 11.7165 7.50023 10.75 7.50023ZM3.85742 9.37035C4.16399 9.41474 4.47991 9.44836 4.80273 9.47093C5.21578 9.5 5.52694 9.85862 5.49805 10.2717C5.46893 10.6845 5.1111 10.9957 4.69824 10.967C4.33901 10.9419 3.98624 10.9045 3.64258 10.8547C3.23279 10.7954 2.94873 10.4149 3.00781 10.0051C3.06717 9.59521 3.44752 9.31104 3.85742 9.37035ZM16.8027 7.54027C17.1618 7.56539 17.5139 7.60284 17.8574 7.65257C18.2672 7.71192 18.5513 8.0924 18.4922 8.50218C18.4328 8.91212 18.0525 9.19631 17.6426 9.13695C17.3362 9.09258 17.0209 9.05894 16.6982 9.03636C16.285 9.00747 15.9731 8.64879 16.002 8.23558C16.0311 7.82259 16.3897 7.51138 16.8027 7.54027Z" fill="var(--fill-0, #353839)"/>
</g>
</svg>
