<svg preserveAspectRatio="none" width="100%" height="100%" overflow="visible" style="display: block;" viewBox="0 0 20.0005 20" fill="none" xmlns="http://www.w3.org/2000/svg">
<g id="elements">
<path id="Icon" d="M5.8457 2.61523C6.2457 2.47164 6.68746 2.66641 6.83105 3.06641C6.97452 3.46624 6.77957 3.90705 6.37988 4.05078C3.48758 5.1277 1.53809 7.92795 1.53809 11.0254C1.5381 15.1279 4.87205 18.4609 8.97461 18.4609C9.9282 18.4609 10.8716 18.2768 11.7637 17.918C12.1534 17.7641 12.6049 17.9486 12.7588 18.3486C12.9125 18.7383 12.7281 19.1899 12.3281 19.3438C11.2513 19.7745 10.1228 19.9893 8.96387 19.9893L8.97461 20C4.03103 20 1.08496e-05 15.9792 0 11.0254C0 7.29221 2.3485 3.90766 5.8457 2.61523ZM8.97461 0C11.1591 5.13458e-05 13.2721 0.646237 15.0977 1.85645C16.913 3.05644 18.3182 4.76909 19.1592 6.7998C20.0002 8.82023 20.2149 11.0254 19.7842 13.1689C19.3637 15.2715 18.3485 17.1998 16.8408 18.7383C16.6973 18.8818 16.5028 18.9643 16.2979 18.9746C16.0927 18.9746 15.9073 18.8921 15.7637 18.7588L8.44141 11.5791C8.29783 11.4355 8.20508 11.2408 8.20508 11.0254V0.769531C8.20508 0.349018 8.5541 0 8.97461 0ZM9.74316 10.6973L16.2666 17.0869C17.2819 15.8665 17.9696 14.431 18.2773 12.8721C18.6466 11.026 18.4615 9.1283 17.7334 7.38477C17.0052 5.64118 15.7948 4.17457 14.2461 3.13867C12.8922 2.23611 11.3534 1.69241 9.74316 1.56934V10.6973Z" fill="var(--fill-0, #5669FF)"/>
<path id="Icon_2" opacity="0.2" d="M9.7436 10.6974L16.2667 17.0871C17.2821 15.8666 17.9692 14.4308 18.2769 12.8718C18.6462 11.0257 18.4616 9.12816 17.7334 7.38457C17.0051 5.64098 15.7949 4.17442 14.2462 3.13852C12.8923 2.23596 11.3539 1.69234 9.7436 1.56926V10.6974Z" fill="var(--fill-0, #5669FF)"/>
</g>
</svg>
