<svg preserveAspectRatio="none" width="100%" height="100%" overflow="visible" style="display: block;" viewBox="0 0 24 24" fill="none" xmlns="http://www.w3.org/2000/svg">
<g id="product-icon">
<g id="Grid">
<path id="Vector 9643 (Stroke)" d="M4.54443 4.42263C4.54443 4.20013 4.81361 4.08803 4.97119 4.2449L11.8452 11.1121C12.3336 11.6002 12.3335 12.3924 11.8452 12.8806L4.97119 19.7537C4.81369 19.9112 4.54443 19.7997 4.54443 19.5769V4.42263ZM3.04443 19.5769C3.04443 21.136 4.93027 21.9176 6.03271 20.8152L12.9058 13.9412C13.9801 12.8669 13.9796 11.1244 12.9048 10.0506L6.03173 3.18435C4.92906 2.08271 3.04443 2.86395 3.04443 4.42263V19.5769Z" fill="var(--fill-0, #5669FF)"/>
<path id="Vector 9643 (Stroke)_2" opacity="0.2" d="M4.54467 4.42265C4.54467 4.20014 4.81385 4.08805 4.97143 4.24491L11.8455 11.1121C12.3339 11.6002 12.3337 12.3924 11.8455 12.8807L4.97143 19.7537C4.81393 19.9112 4.54467 19.7997 4.54467 19.5769V4.42265Z" fill="var(--fill-0, #5669FF)"/>
<path id="Vector 9644 (Stroke)" d="M11.7888 9.29177V4.42263C11.7888 4.20013 12.058 4.08803 12.2156 4.2449L19.0896 11.1121C19.578 11.6002 19.5779 12.3924 19.0896 12.8806L12.2156 19.7537C12.0581 19.9112 11.7888 19.7997 11.7888 19.5769V14.8738C11.7888 14.4596 11.453 14.1238 11.0388 14.1238C10.6248 14.124 10.2888 14.4597 10.2888 14.8738V19.5769C10.2888 21.136 12.1747 21.9176 13.2771 20.8152L20.1501 13.9412C21.2244 12.8669 21.224 11.1244 20.1492 10.0506L13.2761 3.18435C12.1734 2.08271 10.2888 2.86395 10.2888 4.42263V9.29177C10.289 9.70571 10.6249 10.0416 11.0388 10.0418C11.4529 10.0418 11.7886 9.70583 11.7888 9.29177Z" fill="var(--fill-0, #5669FF)"/>
</g>
</g>
</svg>
