<svg preserveAspectRatio="none" width="100%" height="100%" overflow="visible" style="display: block;" viewBox="0 0 20.5 20.5" fill="none" xmlns="http://www.w3.org/2000/svg">
<g id="elements">
<path id="Icon" d="M17.75 0C19.2688 0 20.5 1.23122 20.5 2.75V17.75C20.5 19.2688 19.2688 20.5 17.75 20.5H2.75C1.23122 20.5 0 19.2688 0 17.75V2.75C1.28853e-07 1.23122 1.23122 1.28851e-07 2.75 0H17.75ZM2.75 1.5C2.05964 1.5 1.5 2.05964 1.5 2.75V17.75C1.5 18.4404 2.05964 19 2.75 19H17.75C18.4404 19 19 18.4404 19 17.75V2.75C19 2.05964 18.4404 1.5 17.75 1.5H2.75ZM14.7197 7.71973C15.0126 7.42683 15.4874 7.42683 15.7803 7.71973C16.0732 8.01262 16.0732 8.48738 15.7803 8.78027L12.9873 11.5732C12.3039 12.2566 11.1961 12.2566 10.5127 11.5732L8.92676 9.9873C8.82915 9.88977 8.67085 9.88977 8.57324 9.9873L5.78027 12.7803C5.48738 13.0732 5.01262 13.0732 4.71973 12.7803C4.42683 12.4874 4.42683 12.0126 4.71973 11.7197L7.5127 8.92676C8.19609 8.24344 9.30391 8.24344 9.9873 8.92676L11.5732 10.5127C11.6709 10.6102 11.8291 10.6102 11.9268 10.5127L14.7197 7.71973Z" fill="var(--fill-0, #353839)"/>
</g>
</svg>
