<svg width="24" height="24" viewBox="0 0 24 24" fill="none" xmlns="http://www.w3.org/2000/svg">
<mask id="mask0_10825_216475" style="mask-type:alpha" maskUnits="userSpaceOnUse" x="0" y="0" width="24" height="24">
<rect width="24" height="24" fill="#D9D9D9"/>
</mask>
<g mask="url(#mask0_10825_216475)">
<path d="M15.6716 10.6584C15.6716 9.58528 15.4605 8.52269 15.0499 7.53124C14.6391 6.53959 14.0366 5.63823 13.2776 4.87927C12.5187 4.12037 11.6181 3.51779 10.6266 3.10705C9.6349 2.6963 8.57183 2.48524 7.49848 2.48524C7.05059 2.48524 6.6875 2.12215 6.6875 1.67426C6.6875 1.22637 7.05059 0.863281 7.49848 0.863281C8.78483 0.863281 10.059 1.11683 11.2474 1.60909C12.4357 2.10135 13.5158 2.82301 14.4253 3.73249C15.3348 4.64201 16.0565 5.72204 16.5487 6.91033C17.0409 8.09859 17.2936 9.37226 17.2936 10.6584C17.2936 11.1063 16.9305 11.4694 16.4826 11.4694C16.0349 11.4693 15.6716 11.1062 15.6716 10.6584Z" fill="url(#paint0_linear_10825_216475)"/>
<path d="M8.30946 13.3462C8.3095 14.4193 8.52065 15.4818 8.93127 16.4733C9.34202 17.4649 9.94451 18.3662 10.7034 19.1252C11.4624 19.8841 12.363 20.4867 13.3546 20.8975C14.3462 21.3082 15.4093 21.5193 16.4826 21.5193C16.9306 21.5193 17.2936 21.8824 17.2936 22.3303C17.2936 22.7781 16.9306 23.1412 16.4826 23.1412C15.1963 23.1412 13.922 22.8877 12.7336 22.3954C11.5454 21.9032 10.4653 21.1815 9.55579 20.272C8.64635 19.3624 7.92462 18.2825 7.43241 17.0942C6.94027 15.9059 6.68753 14.6322 6.6875 13.3462C6.6875 12.8982 7.05059 12.5352 7.49848 12.5352C7.94624 12.5353 8.30946 12.8983 8.30946 13.3462Z" fill="url(#paint1_linear_10825_216475)"/>
<path d="M11.3259 15.8542C12.2553 16.3908 13.2812 16.7392 14.3451 16.8793C15.4093 17.0194 16.491 16.9483 17.5279 16.6706C18.5646 16.3927 19.5366 15.9142 20.3881 15.2607C21.2397 14.6073 21.954 13.7922 22.4907 12.8627C22.7146 12.4748 23.2106 12.3419 23.5985 12.5658C23.9864 12.7898 24.1193 13.2858 23.8954 13.6737C23.2522 14.7877 22.3955 15.7644 21.375 16.5474C20.3545 17.3304 19.1895 17.905 17.9471 18.2379C16.7047 18.5707 15.4086 18.6557 14.1334 18.4879C12.8582 18.3199 11.6288 17.902 10.515 17.2589C10.1271 17.035 9.9942 16.539 10.2182 16.1511C10.4422 15.7634 10.9382 15.6304 11.3259 15.8542Z" fill="url(#paint2_linear_10825_216475)"/>
<path d="M12.6781 8.13922C11.7488 7.60269 10.723 7.25427 9.65908 7.11415C8.59491 6.97405 7.51307 7.04514 6.47629 7.32294C5.43961 7.60075 4.46746 8.07938 3.61598 8.73273C2.76444 9.38615 2.05012 10.2013 1.51345 11.1308C1.2895 11.5187 0.793508 11.6516 0.405625 11.4277C0.0177394 11.2037 -0.11516 10.7077 0.108786 10.3198C0.751961 9.20582 1.60864 8.22911 2.62916 7.44603C3.6496 6.66309 4.81463 6.08852 6.057 5.75563C7.29938 5.42279 8.59559 5.33776 9.87079 5.50564C11.1459 5.67356 12.3753 6.09153 13.4891 6.73456C13.8771 6.95852 14.01 7.4545 13.786 7.84238C13.562 8.23009 13.066 8.36313 12.6781 8.13922Z" fill="url(#paint3_linear_10825_216475)"/>
<path d="M8.99765 9.47829C8.06831 10.0149 7.25367 10.729 6.60035 11.5803C5.94694 12.4319 5.46759 13.4044 5.18978 14.4411C4.91203 15.4779 4.84046 16.5591 4.98054 17.6231C5.12064 18.6873 5.46939 19.7134 6.00606 20.6431C6.23001 21.0309 6.09711 21.5269 5.70922 21.7508C5.32134 21.9748 4.82536 21.8419 4.60141 21.4541C3.95824 20.34 3.54071 19.1098 3.37282 17.8344C3.20499 16.5592 3.28991 15.2629 3.6228 14.0206C3.95575 12.7782 4.53021 11.6132 5.3132 10.5928C6.09619 9.57244 7.07286 8.71673 8.18667 8.07363C8.57455 7.84969 9.07054 7.98258 9.29449 8.37047C9.51824 8.75832 9.38545 9.25439 8.99765 9.47829Z" fill="url(#paint4_linear_10825_216475)"/>
<path d="M14.9992 14.5181C15.9286 13.9814 16.7433 13.2673 17.3966 12.416C18.05 11.5644 18.5293 10.592 18.8071 9.55521C19.0849 8.51852 19.1564 7.43729 19.0164 6.37321C18.8763 5.30904 18.5276 4.28287 17.9909 3.35332C17.7669 2.96543 17.8998 2.46945 18.2876 2.2455C18.6756 2.02156 19.1715 2.15446 19.3955 2.54235C20.0386 3.65635 20.4562 4.8866 20.6241 6.16195C20.792 7.43715 20.707 8.73338 20.3741 9.97575C20.0412 11.2181 19.4667 12.3832 18.6837 13.4036C17.9007 14.4239 16.9241 15.2797 15.8102 15.9227C15.4223 16.1467 14.9264 16.0138 14.7024 15.6258C14.4787 15.238 14.6114 14.742 14.9992 14.5181Z" fill="url(#paint5_linear_10825_216475)"/>
</g>
<defs>
<linearGradient id="paint0_linear_10825_216475" x1="6.93061" y1="2.45583" x2="14.9828" y2="7.10476" gradientUnits="userSpaceOnUse">
<stop stop-color="#353839" stop-opacity="0"/>
<stop offset="1" stop-color="#353839"/>
</linearGradient>
<linearGradient id="paint1_linear_10825_216475" x1="17.0505" y1="21.5486" x2="8.99829" y2="16.8997" gradientUnits="userSpaceOnUse">
<stop stop-color="#353839" stop-opacity="0"/>
<stop offset="1" stop-color="#353839"/>
</linearGradient>
<linearGradient id="paint2_linear_10825_216475" x1="22.8001" y1="12.3856" x2="14.7479" y2="17.0345" gradientUnits="userSpaceOnUse">
<stop stop-color="#353839" stop-opacity="0"/>
<stop offset="1" stop-color="#353839"/>
</linearGradient>
<linearGradient id="paint3_linear_10825_216475" x1="1.20403" y1="11.6079" x2="9.25623" y2="6.95896" gradientUnits="userSpaceOnUse">
<stop stop-color="#353839" stop-opacity="0"/>
<stop offset="1" stop-color="#353839"/>
</linearGradient>
<linearGradient id="paint4_linear_10825_216475" x1="6.26452" y1="21.1495" x2="6.26452" y2="11.8517" gradientUnits="userSpaceOnUse">
<stop stop-color="#353839" stop-opacity="0"/>
<stop offset="1" stop-color="#353839"/>
</linearGradient>
<linearGradient id="paint5_linear_10825_216475" x1="17.7324" y1="2.84683" x2="17.7324" y2="12.1447" gradientUnits="userSpaceOnUse">
<stop stop-color="#353839" stop-opacity="0"/>
<stop offset="1" stop-color="#353839"/>
</linearGradient>
</defs>
</svg>
